<svg
        width="auto"
        height="auto"
        viewBox="0 0 231 149.6605963808858"
        className="css-1j8o68f logo"
>
    <defs id="SvgjsDefs2131"></defs>
    <g
            id="SvgjsG2132"
            featureey="symbolContainer"
            transform="matrix(1.8337133672451649,0,0,1.8337133672451649,20.00001349255125,23.007653086415143)"
            fill="#46cdcf"
    >
        <path
                xmlns="http://www.w3.org/2000/svg"
                d="M23.11 55.78L1.69 43.41A3.39 3.39 0 0 1 0 40.48V15.75a3.39 3.39 0 0 1 1.69-2.94L23.11.45a3.39 3.39 0 0 1 3.39 0l21.41 12.37a3.39 3.39 0 0 1 1.69 2.94v24.72a3.39 3.39 0 0 1-1.69 2.94L26.5 55.78a3.39 3.39 0 0 1-3.39 0z"
        ></path>
    </g>
    <g
            id="SvgjsG2133"
            featurekey="monogramFeature-0"
            transform="matrix(1.5173090199472967,0,0,1.5173090199472967,42.67745440769837,16.92042048625325)"
            fill="#48466d"
    >
        <path d="M9.9384 59.62858 c-0.36539 0.21117 -0.70794 0.31735 -1.0517 0.31735 s-0.68766 -0.10559 -1.0531 -0.31676 l-5.2511 -3.0354 c-0.7302 -0.4224 -1.0518 -0.9798 -1.0518 -1.8234 l0 -33.01 c0 -0.8436 0.32162 -1.401 1.0518 -1.8234 l5.5158 -3.1884 c0.23039 -0.13858 0.49981 -0.21838 0.7878 -0.21838 c0.8448 0 1.53 0.6852 1.53 1.53 c0 0.57598 -0.31858 1.0776 -0.78894 1.3386 l-5.037 2.9112 l0 31.909 l4.296 2.4834 l15.947 -9.2184 l0 -29.425 c0 -0.8448 0.6852 -1.53 1.53 -1.53 s1.53 0.6852 1.53 1.53 l0 29.975 c0 0.8436 -0.32162 1.401 -1.0524 1.8234 z M8.8872 53.2656 c-0.8448 0 -1.53 -0.6852 -1.53 -1.53 l0 -26.94 c0 -0.8448 0.6852 -1.53 1.53 -1.53 s1.53 0.6852 1.53 1.53 l0 26.94 c0 0.8448 -0.6852 1.53 -1.53 1.53 z M14.713 49.897999999999996 c-0.8448 0 -1.5312 -0.6864 -1.5312 -1.5312 c0 -0.57598 0.31858 -1.0776 0.78894 -1.3386 l5.037 -2.9112 l0 -22.69 c0 -0.8448 0.6852 -1.53 1.53 -1.53 s1.53 0.6852 1.53 1.53 l0 23.24 c0 0.8436 -0.32162 1.401 -1.0518 1.8234 l-5.5158 3.1884 c-0.22981 0.13858 -0.49922 0.21838 -0.7872 0.21838 z"></path>
    </g>
    <g
            id="SvgjsG2134"
            featurekey="nameFeature-0"
            transform="matrix(3.6549701691000926,0,0,3.6549701691000926,128.07602382114928,-29.239754381498386)"
            fill="#ffffff"
    >
        <path d="M0.8 8 l4.2 0 l2.4 23.6 l0.4 0 l2.4 -23.6 l4.2 0 l-4.4 32 l-4.8 0 z M17.200000000000003 33.6 l3.92 0 c0.2 2.2 0.68 2.8 1.44 2.8 c1.6 0 1.6 -1.68 1.6 -13.24 l0 -11.96 l-3.04 0 l0 -3.2 l7.04 0 l0 15.16 c0 12.8 0 17.24 -5.6 17.24 c-3.52 0 -4.88 -1.92 -5.36 -6.8 z"></path>
    </g>
    <g
            id="SvgjsG2135"
            featurekey="sloganFeature-0"
            transform="matrix(1.4138769004967762,0,0,1.4138769004967762,130.99999924153732,121.12855740062369)"
            fill="#ffffff"
    >
        <path d="M7.8 16.12 c0 1.4 -0.31666 2.4266 -0.95 3.08 s-1.6567 0.98 -3.07 0.98 c-1.3067 0 -2.2634 -0.36 -2.87 -1.08 s-0.91 -1.7133 -0.91 -2.98 l0 -7.2 c0 -1.36 0.32 -2.3766 0.96 -3.05 s1.6467 -1.01 3.02 -1.01 c1.32 0 2.2866 0.35 2.9 1.05 s0.92 1.69 0.92 2.97 l0 1.24 l-1.42 0 c0 -0.48 -0.0033398 -0.96334 -0.01 -1.45 s-0.08 -0.92 -0.22 -1.3 s-0.38 -0.69 -0.72 -0.93 s-0.83666 -0.36 -1.49 -0.36 c-0.96 0 -1.6233 0.25 -1.99 0.75 s-0.55 1.1967 -0.55 2.09 l0 7.28 c0 0.86666 0.17666 1.53 0.53 1.99 s0.98334 0.69 1.89 0.69 s1.5667 -0.21666 1.98 -0.65 s0.62 -1.09 0.62 -1.97 l0 -2.66 l-2.98 -0.02 l0 -1.36 l4.36 0.02 l0 3.88 z M19.1605 20 l-6.18 0 l0 -15 l1.4 0 l0 13.56 l4.78 0 l0 1.44 z M32.580999999999996 20 l-1.4 0 l-1.06 -4.3 l-4.36 0 l-1.06 4.3 l-1.36 0 l4.06 -15 l1.14 0 z M29.781 14.36 l-1.78 -7.42 l-1.9 7.42 l3.68 0 z M44.3815 16.12 c0 1.2267 -0.3199 2.21 -0.9599 2.95 s-1.5933 1.11 -2.86 1.11 c-0.74666 0 -1.3767 -0.10666 -1.89 -0.32 s-0.93 -0.52 -1.25 -0.92 s-0.55 -0.88 -0.69 -1.44 s-0.20334 -1.1867 -0.19 -1.88 l0.02 -0.52 l1.54 0 c0 0.42666 0.01334 0.86332 0.04 1.31 s0.11332 0.85332 0.25998 1.22 s0.37332 0.66666 0.67998 0.9 s0.74666 0.35 1.32 0.35 c0.88 0 1.5267 -0.23334 1.94 -0.7 s0.62 -1.12 0.62 -1.96 c0 -0.66666 -0.16 -1.1933 -0.48 -1.58 s-0.72 -0.71332 -1.2 -0.97998 s-0.99666 -0.50666 -1.55 -0.72 s-1.07 -0.48 -1.55 -0.8 s-0.88 -0.73 -1.2 -1.23 s-0.48 -1.1633 -0.48 -1.99 c0 -1.3333 0.34334 -2.3434 1.03 -3.03 s1.6967 -1.03 3.03 -1.03 c0.62666 0 1.17 0.1 1.63 0.3 s0.84334 0.48 1.15 0.84 s0.53332 0.78666 0.67998 1.28 s0.22 1.04 0.22 1.64 l0 1.26 l-1.46 0 c0 -0.44 -0.0033398 -0.89666 -0.01 -1.37 s-0.07666 -0.90668 -0.21 -1.3 s-0.35668 -0.71668 -0.67002 -0.97002 s-0.77 -0.38 -1.37 -0.38 c-0.86666 0 -1.52 0.22 -1.96 0.66 s-0.64666 1.0867 -0.62 1.94 l0 0.2 c0.01334 0.41334 0.08334 0.75668 0.21 1.03 s0.3 0.50668 0.52 0.70002 s0.47666 0.36334 0.77 0.51 s0.61334 0.3 0.96 0.46 c0.50666 0.22666 1 0.46666 1.48 0.72 s0.90334 0.55 1.27 0.89 s0.66332 0.74 0.88998 1.2 s0.34 1.01 0.34 1.65 z M56.58200000000001 16.12 c0 1.2267 -0.3199 2.21 -0.9599 2.95 s-1.5933 1.11 -2.86 1.11 c-0.74666 0 -1.3767 -0.10666 -1.89 -0.32 s-0.93 -0.52 -1.25 -0.92 s-0.55 -0.88 -0.69 -1.44 s-0.20334 -1.1867 -0.19 -1.88 l0.02 -0.52 l1.54 0 c0 0.42666 0.01334 0.86332 0.04 1.31 s0.11332 0.85332 0.25998 1.22 s0.37332 0.66666 0.67998 0.9 s0.74666 0.35 1.32 0.35 c0.88 0 1.5267 -0.23334 1.94 -0.7 s0.62 -1.12 0.62 -1.96 c0 -0.66666 -0.16 -1.1933 -0.48 -1.58 s-0.72 -0.71332 -1.2 -0.97998 s-0.99666 -0.50666 -1.55 -0.72 s-1.07 -0.48 -1.55 -0.8 s-0.88 -0.73 -1.2 -1.23 s-0.48 -1.1633 -0.48 -1.99 c0 -1.3333 0.34334 -2.3434 1.03 -3.03 s1.6967 -1.03 3.03 -1.03 c0.62666 0 1.17 0.1 1.63 0.3 s0.84334 0.48 1.15 0.84 s0.53332 0.78666 0.67998 1.28 s0.22 1.04 0.22 1.64 l0 1.26 l-1.46 0 c0 -0.44 -0.0033398 -0.89666 -0.01 -1.37 s-0.07666 -0.90668 -0.21 -1.3 s-0.35668 -0.71668 -0.67002 -0.97002 s-0.77 -0.38 -1.37 -0.38 c-0.86666 0 -1.52 0.22 -1.96 0.66 s-0.64666 1.0867 -0.62 1.94 l0 0.2 c0.01334 0.41334 0.08334 0.75668 0.21 1.03 s0.3 0.50668 0.52 0.70002 s0.47666 0.36334 0.77 0.51 s0.61334 0.3 0.96 0.46 c0.50666 0.22666 1 0.46666 1.48 0.72 s0.90334 0.55 1.27 0.89 s0.66332 0.74 0.88998 1.2 s0.34 1.01 0.34 1.65 z"></path>
    </g>
</svg>